#!OML:ASF E:\Steps\Project 1\Capture day 1\Session 2\Subject.ASF
:FULLY-SPECIFIED
:DEGREES
128
root -1.20145 19.4927 20.1877 -154.771 -5.56133 180.832
lowerback -26.6567 -2.41125 -8.89696
upperback -0.260686 -0.828461 -0.0915527
thorax 14.0495 -1.13917 4.41613
lowerneck -7.70515 -7.31054 -0.665944
upperneck 24.464 -12.4261 1.34341
head 9.06648 -6.35339 -0.776037
rclavicle -7.95139e-015 -4.05521e-014
rhumerus -38.3113 -17.5738 -79.4367
rradius 35.7416
rwrist -5.65247
rhand -5.73854 -54.5193
rfingers 7.12502
rthumb 20.0837 -83.5013
lclavicle -7.95139e-015 -4.05521e-014
lhumerus -30.7172 3.43775 77.4715
lradius 24.5521
lwrist -1.71048
lhand -20.9923 -12.412
lfingers 7.12502
lthumb 5.38174 17.4997
rfemur -33.1196 0.869353 25.391
rtibia 31.0438
rfoot -26.3828 -0.0596749
rtoes -31.2706
lfemur -29.5561 -13.8239 -18.0214
ltibia 23.8018
lfoot -16.5668 -0.791599
ltoes -14.5302
129
root -1.20113 19.4866 20.1701 -154.863 -5.62783 180.79
lowerback -26.588 -2.49157 -9.00583
upperback -0.216226 -0.894521 -0.142816
thorax 14.0761 -1.1753 4.39574
lowerneck -8.04058 -7.31936 -0.845505
upperneck 25.1101 -12.5716 1.42892
head 9.3767 -6.43064 -0.781135
rclavicle -1.19271e-014 3.65764e-014
rhumerus -38.2174 -17.2407 -79.5645
rradius 35.9524
rwrist -5.8003
rhand -5.8089 -53.7954
rfingers 7.12502
rthumb 20.0161 -82.7845
lclavicle -1.19271e-014 3.65764e-014
lhumerus -30.8306 3.71644 77.1553
lradius 24.4756
lwrist -2.20246
lhand -21.0234 -12.7945
lfingers 7.12502
lthumb 5.35176 17.118
rfemur -34.0675 -0.0813969 25.5865
rtibia 32.9311
rfoot -26.3105 -0.103378
rtoes -33.6858
lfemur -29.5098 -13.788 -18.116
ltibia 24.1003
lfoot -16.75 -0.792527
ltoes -15.5448
130
root -1.20208 19.4801 20.155 -154.923 -5.71027 180.781
lowerback -26.453 -2.5274 -9.032
upperback -0.235135 -0.943244 -0.193668
thorax 13.9944 -1.19399 4.33879
lowerneck -7.86685 -7.50461 -0.635635
upperneck 24.8058 -12.7633 1.25311
head 9.21262 -6.51876 -0.868296
rclavicle -5.1684e-015 3.65764e-014
rhumerus -38.2187 -16.9852 -79.6567
rradius 36.1762
rwrist -6.11397
rhand -5.7344 -53.8943
rfingers 7.12502
rthumb 20.0877 -82.8758
lclavicle -5.1684e-015 3.65764e-014
lhumerus -31.015 3.65508 76.9871
lradius 24.5475
lwrist -2.12521
lhand -21.0226 -12.9727
lfingers 7.12502
lthumb 5.35255 16.9397
rfemur -35.1051 -0.668341 25.7286
rtibia 34.9731
rfoot -26.9889 -0.293821
rtoes -37.0124
lfemur -29.4619 -13.7257 -18.1687
ltibia 24.2977
lfoot -16.9069 -0.846282
ltoes -15.9704
131
root -1.20373 19.474 20.1453 -154.95 -5.81175 180.818
lowerback -26.2818 -2.52922 -8.98617
upperback -0.629718 -0.976615 -0.374568
thorax 14.1983 -1.22268 4.32736
lowerneck -7.86784 -7.68026 -0.647276
upperneck 25.022 -13.1152 1.38032
head 9.30508 -6.6787 -0.872121
rclavicle 4.37326e-015 -7.07673e-014
rhumerus -38.2846 -16.8256 -79.7949
rradius 36.4678
rwrist -6.29777
rhand -5.69261 -54.4117
rfingers 7.12502
rthumb 20.1278 -83.389
lclavicle 4.37326e-015 -7.07673e-014
lhumerus -31.2088 3.42953 76.8173
lradius 24.7699
lwrist -1.46946
lhand -20.7688 -12.7704
lfingers 7.12502
lthumb 5.59757 17.1357
rfemur -36.2527 -1.22423 25.8676
rtibia 37.195
rfoot -27.1544 -0.415643
rtoes -37.917
lfemur -29.5303 -13.723 -18.1263
ltibia 24.5709
lfoot -17.0959 -0.900259
ltoes -15.7958
132
root -1.20517 19.4647 20.133 -154.991 -5.95867 180.833
lowerback -26.1947 -2.56546 -8.97673
upperback -0.621604 -1.02765 -0.431833
thorax 14.1662 -1.24092 4.23618
lowerneck -7.80613 -7.44897 -0.892058
upperneck 25.2032 -12.8469 1.58783
head 9.38602 -6.56269 -0.743372
rclavicle -3.57812e-015 3.18055e-015
rhumerus -38.2878 -16.765 -79.8674
rradius 36.722
rwrist -6.28505
rhand -5.43428 -54.8478
rfingers 7.12502
rthumb 20.3761 -83.7988
lclavicle -3.57812e-015 3.18055e-015
lhumerus -31.4073 3.1699 76.6844
lradius 24.9816
lwrist -1.09059
lhand -21.1659 -12.6767
lfingers 7.12502
lthumb 5.21418 17.2391
rfemur -37.3609 -2.02558 26.0426
rtibia 39.3365
rfoot -27.079 -0.0973
rtoes -39.0884
lfemur -29.626 -13.7456 -18.1087
ltibia 24.9411
lfoot -17.2741 -1.0332
ltoes -15.2553
